<?xml version="1.0" standalone="no"?>
<!DOCTYPE svg PUBLIC "-//W3C//DTD SVG 20010904//EN"
 "http://www.w3.org/TR/2001/REC-SVG-20010904/DTD/svg10.dtd">
<svg version="1.0" xmlns="http://www.w3.org/2000/svg"
 width="612.000000pt" height="612.000000pt" viewBox="0 0 612.000000 612.000000"
 preserveAspectRatio="xMidYMid meet">
<metadata>
Created by potrace 1.14, written by Peter Selinger 2001-2017
</metadata>
<g transform="translate(0.000000,612.000000) scale(0.100000,-0.100000)"
fill="#000000" stroke="none">
<path d="M1671 5024 c-13 -13 -34 -24 -45 -24 -12 0 -41 -14 -66 -30 -25 -16
-49 -30 -54 -30 -28 0 -216 -207 -216 -238 0 -9 -6 -23 -14 -31 -17 -20 -46
-107 -46 -140 0 -16 -16 -44 -41 -71 -40 -45 -102 -162 -112 -210 -8 -39 -49
-154 -80 -220 -27 -59 -97 -174 -108 -178 -5 -2 -9 -88 -9 -192 l0 -189 33
-22 c17 -12 37 -28 42 -34 25 -30 90 -65 120 -65 19 0 39 -8 50 -20 18 -20 18
-23 2 -73 -35 -111 -42 -155 -29 -190 7 -19 12 -43 12 -54 0 -29 33 -55 67
-51 26 3 28 7 36 57 7 50 37 106 72 136 15 13 67 101 84 145 8 19 17 71 20
114 6 77 7 80 40 98 54 31 69 22 116 -67 23 -44 52 -111 65 -150 13 -38 29
-84 37 -102 7 -17 13 -40 13 -51 0 -12 4 -23 9 -26 5 -3 12 -23 16 -43 4 -21
11 -44 17 -50 6 -7 12 -73 14 -145 6 -178 38 -371 79 -463 42 -97 58 -123 90
-155 41 -39 146 -245 171 -331 8 -30 19 -85 24 -124 6 -38 14 -90 20 -115 5
-25 9 -106 10 -181 0 -134 -9 -187 -45 -274 -7 -16 -20 -55 -30 -85 -9 -30
-23 -62 -29 -70 -33 -39 -76 -123 -76 -145 0 -30 19 -40 111 -55 74 -11 158 0
184 27 9 9 15 33 15 63 0 45 3 52 40 82 68 54 80 95 80 282 1 88 5 181 11 206
5 25 13 69 17 97 10 59 19 75 27 47 4 -10 11 -27 16 -37 5 -9 14 -52 20 -95
12 -87 -2 -243 -27 -290 -7 -15 -14 -33 -14 -40 0 -8 -8 -26 -18 -40 -11 -15
-24 -42 -30 -60 -6 -18 -18 -40 -27 -48 -18 -19 -20 -68 -2 -81 6 -6 46 -15
87 -21 69 -10 115 -7 161 12 20 9 49 69 49 102 0 17 8 27 24 34 42 16 66 61
66 127 0 32 -5 74 -10 93 -15 51 -16 400 -2 426 6 11 16 54 21 95 28 202 34
244 36 247 1 1 15 -3 31 -9 16 -6 47 -15 69 -19 22 -4 56 -13 75 -20 88 -32
108 -38 150 -49 25 -7 68 -16 95 -21 28 -5 64 -13 80 -18 17 -6 68 -13 115
-16 47 -3 101 -10 120 -16 56 -16 271 -13 313 5 20 8 49 15 66 15 16 0 42 7
57 15 16 8 38 15 48 15 11 0 27 7 37 16 32 29 42 19 103 -101 33 -67 42 -187
22 -310 -16 -98 -33 -172 -47 -195 -32 -56 -79 -156 -79 -169 -1 -19 -34 -61
-48 -61 -17 0 -32 -27 -36 -66 -2 -21 -7 -57 -10 -79 -4 -22 -3 -46 3 -54 11
-17 135 -27 215 -17 53 7 57 10 80 49 13 23 26 53 29 67 6 25 25 49 66 82 18
15 21 28 21 97 0 66 4 88 25 127 14 26 25 54 25 63 1 9 9 34 20 56 11 22 19
45 20 52 0 12 22 67 41 105 5 10 9 23 9 28 0 6 9 31 20 56 l21 45 35 -48 c19
-26 37 -55 40 -63 3 -8 11 -26 18 -40 25 -49 39 -137 31 -192 -20 -148 -33
-197 -60 -238 -6 -8 -14 -28 -20 -45 -6 -17 -26 -40 -47 -54 -30 -19 -38 -31
-38 -55 0 -17 -7 -44 -15 -60 -8 -15 -15 -53 -15 -82 l0 -54 150 0 c150 0 151
0 160 24 5 13 14 27 19 31 6 3 11 28 11 55 0 40 4 52 28 72 38 32 49 62 57
154 4 43 13 104 21 135 8 31 14 88 14 125 1 38 7 87 15 109 8 22 15 56 15 75
0 20 6 45 14 56 33 47 40 131 21 264 -27 187 -24 345 10 480 67 274 93 552 61
663 -22 77 -20 108 12 154 36 52 45 67 84 142 18 35 39 66 46 68 9 4 12 60 12
234 0 126 -4 229 -8 229 -5 0 -24 30 -43 68 -36 72 -98 162 -111 162 -4 0 -8
7 -8 16 0 14 -8 16 -41 11 -38 -5 -43 -2 -77 35 -62 69 -150 96 -289 90 -28
-2 -33 -6 -33 -28 0 -40 17 -61 55 -68 45 -9 88 -34 113 -67 29 -38 52 -94 52
-128 0 -16 5 -53 11 -82 15 -71 -3 -185 -40 -248 -15 -25 -30 -54 -34 -63 -9
-26 -40 -22 -101 11 -30 16 -83 38 -118 49 -124 41 -367 61 -518 43 -52 -7
-142 -16 -200 -21 -57 -6 -118 -14 -135 -19 -45 -14 -467 -23 -565 -12 -89 10
-159 25 -188 41 -113 61 -272 110 -360 110 -146 0 -352 118 -534 307 -51 53
-119 122 -150 154 -57 56 -70 79 -45 79 15 0 63 48 83 82 43 76 58 127 69 228
11 101 -52 148 -133 99 -20 -13 -39 -26 -42 -29 -11 -15 -50 -30 -50 -20 0 5
-9 19 -20 30 l-20 20 45 12 c25 7 45 16 45 20 0 4 17 8 38 8 20 0 46 7 56 15
11 8 34 15 51 15 47 0 77 26 74 64 -1 17 1 38 5 47 4 9 6 34 4 55 l-3 39 -170
2 c-167 1 -170 1 -194 -23z"/>
</g>
</svg>
